<svg xmlns="http://www.w3.org/2000/svg" viewBox="0 0 720 360" role="img" aria-label="Core target screening illustration">
  <rect width="720" height="360" rx="24" fill="#f8fafc"/>
  <circle cx="272" cy="180" r="92" fill="#bfdbfe" fill-opacity=".72" stroke="#60a5fa" stroke-width="4"/>
  <circle cx="368" cy="180" r="92" fill="#bbf7d0" fill-opacity=".72" stroke="#34d399" stroke-width="4"/>
  <circle cx="320" cy="108" r="92" fill="#fde68a" fill-opacity=".72" stroke="#f59e0b" stroke-width="4"/>
  <circle cx="320" cy="158" r="32" fill="#ffffff" stroke="#0f172a" stroke-width="4"/>
  <text x="320" y="168" text-anchor="middle" font-size="24" font-family="Arial, sans-serif" font-weight="700" fill="#0f172a">Core</text>
  <g fill="#0f172a" font-family="Arial, sans-serif" font-weight="700">
    <text x="166" y="276" font-size="22">Drug</text>
    <text x="444" y="276" font-size="22">Disease</text>
    <text x="300" y="44" font-size="22">DEGs</text>
  </g>
  <path d="M510 110 h96 a22 22 0 0 1 22 22 v96 a22 22 0 0 1-22 22 h-96 a22 22 0 0 1-22-22 v-96 a22 22 0 0 1 22-22z" fill="#eef2ff" stroke="#818cf8" stroke-width="4"/>
  <path d="M516 150 h84M516 180 h84M516 210 h56" stroke="#6366f1" stroke-width="6" stroke-linecap="round"/>
</svg>
