<svg xmlns="http://www.w3.org/2000/svg" viewBox="0 0 760 430" role="img" aria-label="集合分析与 Venn-UpSet 可视化">
  <defs>
    <linearGradient id="bg" x1="0" y1="0" x2="1" y2="1">
      <stop offset="0" stop-color="#f0f9ff"/>
      <stop offset=".55" stop-color="#ecfeff"/>
      <stop offset="1" stop-color="#fdf2f8"/>
    </linearGradient>
    <linearGradient id="card" x1="0" y1="0" x2="0" y2="1">
      <stop offset="0" stop-color="#ffffff"/>
      <stop offset="1" stop-color="#f8fafc"/>
    </linearGradient>
    <filter id="shadow" x="-20%" y="-20%" width="140%" height="140%">
      <feDropShadow dx="0" dy="16" stdDeviation="18" flood-color="#0f172a" flood-opacity=".14"/>
    </filter>
  </defs>
  <rect width="760" height="430" rx="34" fill="url(#bg)"/>
  <circle cx="92" cy="70" r="38" fill="#bfdbfe" opacity=".55"/>
  <circle cx="675" cy="72" r="56" fill="#fbcfe8" opacity=".45"/>
  <circle cx="704" cy="335" r="46" fill="#bbf7d0" opacity=".45"/>

  <g filter="url(#shadow)">
    <rect x="62" y="58" width="636" height="314" rx="30" fill="url(#card)"/>
  </g>

  <g transform="translate(98 92)">
    <rect x="0" y="0" width="164" height="214" rx="22" fill="#eff6ff"/>
    <text x="24" y="38" font-family="Arial,'Microsoft YaHei',sans-serif" font-size="22" font-weight="700" fill="#1e3a8a">two-column</text>
    <rect x="22" y="62" width="120" height="22" rx="8" fill="#dbeafe"/>
    <rect x="22" y="96" width="120" height="22" rx="8" fill="#ccfbf1"/>
    <rect x="22" y="130" width="120" height="22" rx="8" fill="#fce7f3"/>
    <rect x="22" y="164" width="86" height="22" rx="8" fill="#fef3c7"/>
    <g fill="#2563eb" opacity=".78">
      <circle cx="32" cy="73" r="4"/>
      <circle cx="32" cy="107" r="4"/>
      <circle cx="32" cy="141" r="4"/>
      <circle cx="32" cy="175" r="4"/>
    </g>
  </g>

  <g transform="translate(286 82)">
    <circle cx="96" cy="120" r="74" fill="#93c5fd" opacity=".58"/>
    <circle cx="166" cy="120" r="74" fill="#5eead4" opacity=".58"/>
    <circle cx="132" cy="178" r="74" fill="#fde68a" opacity=".58"/>
    <circle cx="132" cy="138" r="34" fill="#ffffff" opacity=".85"/>
    <text x="132" y="146" text-anchor="middle" font-family="Arial,'Microsoft YaHei',sans-serif" font-size="30" font-weight="800" fill="#0f172a">43</text>
    <text x="132" y="248" text-anchor="middle" font-family="Arial,'Microsoft YaHei',sans-serif" font-size="18" font-weight="700" fill="#0369a1">Venn / Flower</text>
  </g>

  <g transform="translate(526 105)">
    <rect x="0" y="0" width="118" height="154" rx="20" fill="#f8fafc" stroke="#dbeafe" stroke-width="2"/>
    <rect x="20" y="22" width="24" height="92" rx="8" fill="#60a5fa"/>
    <rect x="52" y="48" width="24" height="66" rx="8" fill="#34d399"/>
    <rect x="84" y="74" width="24" height="40" rx="8" fill="#f472b6"/>
    <g stroke="#64748b" stroke-width="2">
      <line x1="22" y1="130" x2="104" y2="130"/>
      <line x1="22" y1="142" x2="104" y2="142"/>
    </g>
    <g fill="#2563eb">
      <circle cx="34" cy="130" r="5"/><circle cx="66" cy="130" r="5"/><circle cx="98" cy="130" r="5"/>
      <circle cx="34" cy="142" r="5"/><circle cx="98" cy="142" r="5"/>
    </g>
    <text x="59" y="198" text-anchor="middle" font-family="Arial,'Microsoft YaHei',sans-serif" font-size="18" font-weight="700" fill="#0369a1">UpSet</text>
  </g>

  <g transform="translate(138 334)" font-family="Arial,'Microsoft YaHei',sans-serif">
    <rect x="0" y="-28" width="486" height="48" rx="24" fill="#ffffff" opacity=".86"/>
    <text x="28" y="3" font-size="18" font-weight="700" fill="#0f172a">交集</text>
    <text x="122" y="3" font-size="18" font-weight="700" fill="#0f172a">特异元素</text>
    <text x="258" y="3" font-size="18" font-weight="700" fill="#0f172a">Jaccard</text>
    <text x="374" y="3" font-size="18" font-weight="700" fill="#0f172a">论文图导出</text>
  </g>
</svg>
